REM GENRE Rock
REM DATE 2008
REM DISCID B80DD20D
REM COMMENT "ExactAudioCopy v1.0b1"
PERFORMER "O.A.R."
TITLE "All Sides"
FILE "O.A.R\All Sides\01 ~ O.A.R. ~ All Sides ~ This Town.wav" WAVE
  TRACK 01 AUDIO
    TITLE "This Town"
    PERFORMER "O.A.R."
    INDEX 01 00:00:00
FILE "O.A.R\All Sides\02 ~ O.A.R. ~ All Sides ~ Shattered.wav" WAVE
  TRACK 02 AUDIO
    TITLE "Shattered"
    PERFORMER "O.A.R."
    INDEX 01 00:00:00
FILE "O.A.R\All Sides\03 ~ O.A.R. ~ All Sides ~ Whatever Happened.wav" WAVE
  TRACK 03 AUDIO
    TITLE "Whatever Happened"
    PERFORMER "O.A.R."
    INDEX 01 00:00:00
FILE "O.A.R\All Sides\04 ~ O.A.R. ~ All Sides ~ Try Me.wav" WAVE
  TRACK 04 AUDIO
    TITLE "Try Me"
    PERFORMER "O.A.R."
    INDEX 01 00:00:00
FILE "O.A.R\All Sides\05 ~ O.A.R. ~ All Sides ~ One Day.wav" WAVE
  TRACK 05 AUDIO
    TITLE "One Day"
    PERFORMER "O.A.R."
    INDEX 01 00:00:00
FILE "O.A.R\All Sides\06 ~ O.A.R. ~ All Sides ~ Living In The End.wav" WAVE
  TRACK 06 AUDIO
    TITLE "Living In The End"
    PERFORMER "O.A.R."
    INDEX 00 00:00:00
    INDEX 01 00:01:21
FILE "O.A.R\All Sides\07 ~ O.A.R. ~ All Sides ~ Something Coming Over.wav" WAVE
  TRACK 07 AUDIO
    TITLE "Something Coming Over"
    PERFORMER "O.A.R."
    INDEX 00 00:00:00
    INDEX 01 00:00:69
FILE "O.A.R\All Sides\08 ~ O.A.R. ~ All Sides ~ What Is Mine.wav" WAVE
  TRACK 08 AUDIO
    TITLE "What Is Mine"
    PERFORMER "O.A.R."
    INDEX 00 00:00:00
    INDEX 01 00:00:46
FILE "O.A.R\All Sides\09 ~ O.A.R. ~ All Sides ~ Dinner Last Night.wav" WAVE
  TRACK 09 AUDIO
    TITLE "Dinner Last Night"
    PERFORMER "O.A.R."
    INDEX 01 00:00:00
FILE "O.A.R\All Sides\10 ~ O.A.R. ~ All Sides ~ The Fallout.wav" WAVE
  TRACK 10 AUDIO
    TITLE "The Fallout"
    PERFORMER "O.A.R."
    INDEX 01 00:00:00
FILE "O.A.R\All Sides\11 ~ O.A.R. ~ All Sides ~ Gift.wav" WAVE
  TRACK 11 AUDIO
    TITLE "Gift"
    PERFORMER "O.A.R."
    INDEX 01 00:00:00
FILE "O.A.R\All Sides\12 ~ O.A.R. ~ All Sides ~ War Song.wav" WAVE
  TRACK 12 AUDIO
    TITLE "War Song"
    PERFORMER "O.A.R."
    INDEX 01 00:00:00
FILE "O.A.R\All Sides\13 ~ O.A.R. ~ All Sides ~ On My Way.wav" WAVE
  TRACK 13 AUDIO
    TITLE "On My Way"
    PERFORMER "O.A.R."
    INDEX 00 00:00:00
    INDEX 01 00:00:43
